# xmcd
#
# Track frame offsets: 
#        150
#        20570
#        42919
#        61429
#        84137
#        105986
#        125706
#        149031
#        168092
#        187172
#        207892
#        249130
#
# Disc length: 3820 seconds
#
# Revision: 0
# Processed by: cddbd v1.5.2PL0 Copyright (c) Steve Scherf et al.
# Submitted via: ExactAudioCopyFreeDBPlugin 1.0
#
DISCID=a10eea0c
DTITLE=吉幾三 - 芸能生活40周年企画 シングルパーフェクトコレクション DISC2
DYEAR=2013
DGENRE=Vocal
TTITLE0=雪國
TTITLE1=海峡
TTITLE2=酒よ
TTITLE3=港
TTITLE4=酔歌
TTITLE5=女のかぞえ唄
TTITLE6=夜更けのメロディー
TTITLE7=酔待酒
TTITLE8=門出 <星野哲郎作詞生活40年記念曲>
TTITLE9=男の船唄
TTITLE10=酒よ…追伸
TTITLE11=酔歌…追伸
EXTD=
EXTT0=
EXTT1=
EXTT2=
EXTT3=
EXTT4=
EXTT5=
EXTT6=
EXTT7=
EXTT8=
EXTT9=
EXTT10=
EXTT11=
PLAYORDER=
